<?xml version="1.0" encoding="UTF-8"?>
<svg width="15px" height="15px" viewBox="0 0 15 15" version="1.1" xmlns="http://www.w3.org/2000/svg" xmlns:xlink="http://www.w3.org/1999/xlink">
    <!-- Generator: Sketch 42 (36781) - http://www.bohemiancoding.com/sketch -->
    <title>Cart@2x</title>
    <desc>Created with Sketch.</desc>
    <defs>
        <path d="M4.5,12 C3.675,12 3.0075,12.675 3.0075,13.5 C3.0075,14.325 3.675,15 4.5,15 C5.325,15 6,14.325 6,13.5 C6,12.675 5.325,12 4.5,12 L4.5,12 Z M0,0 L0,1.5 L1.5,1.5 L4.2,7.1925 L3.1875,9.03 C3.0675,9.24 3,9.4875 3,9.75 C3,10.575 3.675,11.25 4.5,11.25 L13.5,11.25 L13.5,9.75 L4.815,9.75 C4.71,9.75 4.6275,9.6675 4.6275,9.5625 L4.65,9.4725 L5.325,8.25 L10.9125,8.25 C11.475,8.25 11.97,7.9425 12.225,7.4775 L14.91,2.61 C14.97,2.505 15,2.3775 15,2.25 C15,1.8375 14.6625,1.5 14.25,1.5 L3.1575,1.5 L2.4525,0 L0,0 L0,0 Z M12,12 C11.175,12 10.5075,12.675 10.5075,13.5 C10.5075,14.325 11.175,15 12,15 C12.825,15 13.5,14.325 13.5,13.5 C13.5,12.675 12.825,12 12,12 L12,12 Z" id="path-1"></path>
    </defs>
    <g id="Symbols" stroke="none" stroke-width="1" fill="none" fill-rule="evenodd">
        <g id="Mixin/Icons/Cart">
            <g id="Mixin/Color/Purple_dark">
                <mask id="mask-2" fill="white">
                    <use xlink:href="#path-1"></use>
                </mask>
                <use id="Cart" fill="white" xlink:href="#path-1"></use>
            </g>
        </g>
    </g>
</svg>