<?xml version="1.0" encoding="UTF-8"?>
<svg width="15px" height="4px" viewBox="0 0 15 4" version="1.1" xmlns="http://www.w3.org/2000/svg" xmlns:xlink="http://www.w3.org/1999/xlink">
    <!-- Generator: Sketch 42 (36781) - http://www.bohemiancoding.com/sketch -->
    <title>More@2x</title>
    <desc>Created with Sketch.</desc>
    <defs>
        <path d="M7.5,4 C8.62967335,4 9.54545455,3.1045695 9.54545455,2 C9.54545455,0.8954305 8.62967335,0 7.5,0 C6.37032665,0 5.45454545,0.8954305 5.45454545,2 C5.45454545,3.1045695 6.37032665,4 7.5,4 Z M2.04545455,4 C3.1751279,4 4.09090909,3.1045695 4.09090909,2 C4.09090909,0.8954305 3.1751279,0 2.04545455,0 C0.915781194,0 0,0.8954305 0,2 C0,3.1045695 0.915781194,4 2.04545455,4 Z M12.9545455,4 C14.0842188,4 15,3.1045695 15,2 C15,0.8954305 14.0842188,0 12.9545455,0 C11.8248721,0 10.9090909,0.8954305 10.9090909,2 C10.9090909,3.1045695 11.8248721,4 12.9545455,4 Z" id="path-1"></path>
    </defs>
    <g id="Symbols" stroke="none" stroke-width="1" fill="none" fill-rule="evenodd">
        <g id="Mixin/Icons/Menu" transform="translate(0.000000, -6.000000)">
            <g id="Mixin/Color/Grey_01" transform="translate(0.000000, 6.000000)">
                <mask id="mask-2" fill="white">
                    <use xlink:href="#path-1"></use>
                </mask>
                <use id="More" fill="#B8BDC5" xlink:href="#path-1"></use>
            </g>
        </g>
    </g>
</svg>