<?xml version="1.0" encoding="UTF-8"?>
<svg width="15px" height="13px" viewBox="0 0 15 13" version="1.1" xmlns="http://www.w3.org/2000/svg" xmlns:xlink="http://www.w3.org/1999/xlink">
    <!-- Generator: Sketch 42 (36781) - http://www.bohemiancoding.com/sketch -->
    <title>news@2x</title>
    <desc>Created with Sketch.</desc>
    <defs>
        <path d="M14.6264406,4.42583673 L11.7137755,2.58222449 C11.6909964,2.56798639 11.6658764,2.56259184 11.6413866,2.55463265 L11.6413866,1.91878231 C11.6413866,1.74898639 11.5014706,1.61146939 11.3285114,1.61146939 L10.1668667,1.61146939 L7.74039616,0.121863946 C7.63901561,0.0594285714 7.51008403,0.0594285714 7.40861345,0.121863946 L4.98214286,1.61146939 L3.50762305,1.61146939 C3.3347539,1.61146939 3.1947479,1.74889796 3.1947479,1.91878231 L3.1947479,2.55445578 C3.1702581,2.56241497 3.14504802,2.56789796 3.12235894,2.58222449 L0.209693878,4.42583673 C0.120468187,4.48252381 0.0663565426,4.57980272 0.0663565426,4.68415646 L0.0663565426,12.6733197 C0.0663565426,12.8431156 0.206272509,12.9806327 0.379231693,12.9806327 L14.4569028,12.9806327 C14.6297719,12.9806327 14.7697779,12.8432041 14.7697779,12.6733197 L14.7697779,4.6842449 C14.7697779,4.57980272 14.7156663,4.48261224 14.6264406,4.42583673 Z M7.57454982,0.744891156 L8.98640456,1.61146939 L6.16269508,1.61146939 L7.57454982,0.744891156 Z M3.8204982,2.2260068 L11.0157263,2.2260068 L11.0157263,9.13970748 C11.0157263,9.14059184 11.0162665,9.14129932 11.0162665,9.14227211 L9.95798319,9.77343537 L7.41140456,8.40914286 C7.31641657,8.35873469 7.20090036,8.359 7.10654262,8.41214966 L4.78271309,9.71648299 L3.82004802,9.14236054 C3.82004802,9.14147619 3.82058824,9.14076871 3.82058824,9.13988435 L3.8204982,2.2260068 Z M0.692106843,4.85165306 L3.1947479,3.26777551 L3.1947479,8.76951701 L0.692106843,7.27690476 L0.692106843,4.85165306 Z M0.692106843,7.99561905 L4.16182473,10.0647415 L0.692106843,12.0122653 L0.692106843,7.99561905 Z M1.32253902,12.3661837 L7.26536615,9.03084354 L13.4909064,12.3661837 L1.32253902,12.3661837 Z M14.1441176,12.016068 L10.5927371,10.1134694 L14.1441176,7.99553061 L14.1441176,12.016068 Z M14.1441176,7.27690476 L11.6413866,8.76942857 L11.6413866,3.26777551 L14.1441176,4.8517415 L14.1441176,7.27690476 Z M4.75894358,5.91331973 L9.76431573,5.91331973 L9.76431573,6.52785714 L4.75894358,6.52785714 L4.75894358,5.91331973 Z M4.75894358,4.91331973 L9.76431573,4.91331973 L9.76431573,5.52785714 L4.75894358,5.52785714 L4.75894358,4.91331973 Z M4.75894358,7.14248299 L9.76431573,7.14248299 L9.76431573,7.75702041 L4.75894358,7.75702041 L4.75894358,7.14248299 Z" id="path-1"></path>
    </defs>
    <g id="Symbols" stroke="none" stroke-width="1" fill="none" fill-rule="evenodd">
        <g id="Mixin/Icons/News" transform="translate(0.000000, -1.000000)">
            <g id="Content">
                <g transform="translate(0.000000, 1.000000)">
                    <g id="Mixin/Color/Grey_01">
                        <mask id="mask-2" fill="white">
                            <use xlink:href="#path-1"></use>
                        </mask>
                        <g id="news" fill-rule="nonzero"></g>
                    </g>
                </g>
            </g>
        </g>
    </g>
</svg>