<?xml version="1.0" encoding="UTF-8"?>
<svg width="91px" height="112px" viewBox="0 0 91 112" version="1.1" xmlns="http://www.w3.org/2000/svg" xmlns:xlink="http://www.w3.org/1999/xlink">
    <!-- Generator: Sketch 42 (36781) - http://www.bohemiancoding.com/sketch -->
    <title>Woman_2</title>
    <desc>Created with Sketch.</desc>
    <defs></defs>
    <g id="Team" stroke="none" stroke-width="1" fill="none" fill-rule="evenodd">
        <g id="Artboard" transform="translate(-344.000000, -254.000000)">
            <g id="Woman_2" transform="translate(344.000000, 254.000000)">
                <path d="M45.425,86.825 C45.425,86.825 45.356,96.025 35.075,96.025 C24.794,96.025 23.575,84.525 23.575,84.525 C23.575,84.525 31.418,80.431 33.925,77.625 C33.925,77.625 38.663,86.825 45.425,86.825 L45.425,86.825 Z" id="Shape" fill="#F8F8F9"></path>
                <path d="M77.625,20.125 L77.625,47.725 L77.625,70.725 C77.625,70.725 77.28,80.868 72.289,86.365 C70.771,85.721 69.092,85.1 67.275,84.525 C67.275,84.525 59.432,80.431 56.925,77.625 L56.925,70.311 C65.527,65.872 70.725,56.396 70.725,45.425 L70.725,32.775 L61.525,21.275 C49.312,35.006 20.125,32.775 20.125,32.775 L20.125,45.425 C20.125,56.396 25.323,65.872 33.925,70.311 L33.925,77.625 C31.418,80.431 23.575,84.525 23.575,84.525 C21.758,85.1 20.102,85.744 18.584,86.388 C13.57,80.891 13.225,70.725 13.225,70.725 L13.225,47.725 L13.225,20.125 C13.225,20.125 17.894,1.725 45.425,1.725 C72.956,1.725 77.625,20.125 77.625,20.125 L77.625,20.125 Z" id="Shape" fill="#A67C52"></path>
                <path d="M33.925,70.311 C37.283,72.059 41.147,73.025 45.425,73.025 C49.703,73.025 53.567,72.059 56.925,70.311 L56.925,77.625 C56.925,77.625 52.187,86.825 45.425,86.825 C38.663,86.825 33.925,77.625 33.925,77.625 L33.925,70.311 L33.925,70.311 Z" id="Shape" fill="#FFD7A3"></path>
                <path d="M56.925,70.311 C53.567,72.059 49.703,73.025 45.425,73.025 C41.147,73.025 37.283,72.059 33.925,70.311 C25.323,65.872 20.125,56.396 20.125,45.425 L20.125,32.775 C20.125,32.775 49.312,35.006 61.525,21.275 L70.725,32.775 L70.725,45.425 C70.725,56.396 65.527,65.872 56.925,70.311 L56.925,70.311 Z" id="Shape" fill="#FFE1B2"></path>
                <path d="M74.99196,85.6888 C78.99695,79.69707 79.33551,71.18086 79.34908,70.78365 L79.35,19.90949 L79.2971,19.70065 C79.24466,19.49411 77.95666,14.58384 73.06801,9.70393 C65.03227,1.6836 53.60012,0 45.425,0 C30.61369,0 22.21754,5.27712 17.78222,9.70393 C12.89334,14.58384 11.60534,19.49411 11.5529,19.70065 L11.5,19.90949 L11.5,70.725 L11.50092,70.78342 C11.51449,71.18178 11.85351,79.7249 15.88173,85.72123 C0.37651,93.17438 0.00805,103.5874 0,104.04487 L0,111.55 L90.85,111.55 L90.85,104.06373 C90.84701,103.60281 90.58987,93.10975 74.99196,85.6888 L74.99196,85.6888 Z M14.95,20.36696 C15.21082,19.52033 16.49859,15.85988 20.21953,12.14607 C25.91893,6.45702 34.63501,3.45 45.425,3.45 C56.12161,3.45 64.78824,6.40826 70.4881,12.00485 C74.28333,15.73154 75.63159,19.51734 75.9,20.37133 L75.9,70.68958 C75.877,71.20271 75.45173,79.30354 71.76322,84.2858 C70.5456,83.80441 69.26565,83.34924 67.942,82.92673 C65.88741,81.84458 60.82902,78.97809 58.65,76.92143 L58.65,71.33404 C62.74883,68.9908 66.1618,65.49066 68.56024,61.15194 C71.10496,56.54964 72.45,51.11152 72.45,45.425 L72.45,32.16987 L61.59492,18.60102 L60.23608,20.12868 C48.73884,33.05491 20.53923,31.07691 20.25656,31.05506 L18.4,30.91315 L18.4,45.425 C18.4,51.11152 19.74504,56.54964 22.28976,61.15217 C24.68843,65.49089 28.10117,68.99103 32.2,71.33427 L32.2,76.92166 C30.02098,78.97832 24.96236,81.84481 22.90777,82.92719 C21.6798,83.32003 20.42515,83.77612 19.10495,84.30719 C15.39643,79.31987 14.97254,71.19121 14.95023,70.69027 L14.95023,20.36696 L14.95,20.36696 L14.95,20.36696 Z M45.425,85.1 C40.47103,85.1 36.54079,78.74349 35.65,77.1811 L35.65,72.97831 C38.68186,74.15315 41.95752,74.74977 45.425,74.74977 C48.8934,74.74977 52.16998,74.15292 55.2,72.97854 L55.2,77.18087 C54.30714,78.74694 50.37759,85.1 45.425,85.1 L45.425,85.1 Z M56.12851,68.78104 C52.91725,70.45245 49.31591,71.3 45.425,71.3 C41.53409,71.3 37.93275,70.45245 34.72149,68.78104 L34.7162,68.77805 C30.80942,66.76187 27.55653,63.54785 25.30897,59.48283 C23.046,55.38998 21.85,50.52893 21.85,45.425 L21.85,34.58901 C24.60517,34.68515 30.12402,34.71804 36.46972,33.88452 C47.58976,32.42425 55.96314,29.06303 61.40149,23.88205 L69,33.38013 L69,45.425 C69,50.52893 67.804,55.38998 65.54103,59.48283 C63.2937,63.54785 60.04081,66.7621 56.12851,68.78104 L56.12851,68.78104 Z" id="Shape" fill="#231F20"></path>
                <path d="M66.2750011,85.117857 C87.0591594,91.610714 87.1250015,103.514285 87.1250015,103.514285 L87.1250015,108.924999 L3.725,108.924999 L3.725,103.514285 C3.725,103.514285 3.92252632,91.6756425 24.5750004,85.117857 C24.5750004,85.117857 26.5283162,84.1006427 28.7669478,82.7804285 C30.8958426,81.5034999 33.2881058,79.9235714 34.4513164,78.625 C34.4513164,78.625 38.9724743,88.3642855 45.4250008,88.3642855 C51.8775272,88.3642855 56.3986852,78.625 56.3986852,78.625 C57.5618957,79.9235714 59.9541589,81.5034999 62.0830537,82.7804285 L66.2750011,85.117857 Z" id="Shape" fill="#E75040"></path>
                <path d="M44.6063086,43.334271 C44.8524523,52.5646617 42.1296779,51.4071232 48.2954338,51.4071232" id="Path-3" stroke="#231F20" stroke-width="2" stroke-linecap="round" stroke-linejoin="round"></path>
                <circle id="Oval" fill="#231F20" cx="34.25" cy="37.25" r="2.25"></circle>
                <circle id="Oval" fill="#231F20" cx="57.25" cy="37.25" r="2.25"></circle>
                <path d="M34.3703474,57.6785614 C41.382045,65.0613025 48.4340912,64.7844685 56.1426019,58.1917961" id="Path-2" stroke="#231F20" stroke-width="2.5" stroke-linecap="round" stroke-linejoin="round"></path>
            </g>
        </g>
    </g>
</svg>