<?xml version="1.0" encoding="UTF-8"?>
<svg width="91px" height="112px" viewBox="0 0 91 112" version="1.1" xmlns="http://www.w3.org/2000/svg" xmlns:xlink="http://www.w3.org/1999/xlink">
    <!-- Generator: Sketch 42 (36781) - http://www.bohemiancoding.com/sketch -->
    <title>Woman_3</title>
    <desc>Created with Sketch.</desc>
    <defs></defs>
    <g id="Team" stroke="none" stroke-width="1" fill="none" fill-rule="evenodd">
        <g id="Artboard" transform="translate(-474.000000, -254.000000)">
            <g id="Woman_3" transform="translate(405.000000, 254.000000)">
                <path d="M114.425,86.825 C114.425,86.825 114.356,96.025 104.075,96.025 C93.794,96.025 92.575,84.525 92.575,84.525 C92.575,84.525 100.418,80.431 102.925,77.625 C102.925,77.625 107.663,86.825 114.425,86.825 L114.425,86.825 Z" id="Shape" fill="#F8F8F9"></path>
                <path d="M146.625,20.125 L146.625,47.725 L146.625,70.725 C146.625,70.725 146.28,80.868 141.289,86.365 C139.771,85.721 138.092,85.1 136.275,84.525 C136.275,84.525 128.432,80.431 125.925,77.625 L125.925,70.311 C134.527,65.872 139.725,56.396 139.725,45.425 L139.725,32.775 L130.525,21.275 C118.312,35.006 89.125,32.775 89.125,32.775 L89.125,45.425 C89.125,56.396 94.323,65.872 102.925,70.311 L102.925,77.625 C100.418,80.431 92.575,84.525 92.575,84.525 C90.758,85.1 89.102,85.744 87.584,86.388 C82.57,80.891 82.225,70.725 82.225,70.725 L82.225,47.725 L82.225,20.125 C82.225,20.125 86.894,1.725 114.425,1.725 C141.956,1.725 146.625,20.125 146.625,20.125 L146.625,20.125 Z" id="Shape" fill="#58595B"></path>
                <path d="M102.925,70.311 C106.283,72.059 110.147,73.025 114.425,73.025 C118.703,73.025 122.567,72.059 125.925,70.311 L125.925,77.625 C125.925,77.625 121.187,86.825 114.425,86.825 C107.663,86.825 102.925,77.625 102.925,77.625 L102.925,70.311 L102.925,70.311 Z" id="Shape" fill="#F7E4AA"></path>
                <path d="M125.925,70.311 C122.567,72.059 118.703,73.025 114.425,73.025 C110.147,73.025 106.283,72.059 102.925,70.311 C94.323,65.872 89.125,56.396 89.125,45.425 L89.125,32.775 C89.125,32.775 118.312,35.006 130.525,21.275 L139.725,32.775 L139.725,45.425 C139.725,56.396 134.527,65.872 125.925,70.311 L125.925,70.311 Z" id="Shape" fill="#F7E4AA"></path>
                <path d="M143.99196,85.6888 C147.99695,79.69707 148.33551,71.18086 148.34908,70.78365 L148.35,19.90949 L148.2971,19.70065 C148.24466,19.49411 146.95666,14.58384 142.06801,9.70393 C134.03227,1.6836 122.60012,0 114.425,0 C99.61369,0 91.21754,5.27712 86.78222,9.70393 C81.89334,14.58384 80.60534,19.49411 80.5529,19.70065 L80.5,19.90949 L80.5,70.725 L80.50092,70.78342 C80.51449,71.18178 80.85351,79.7249 84.88173,85.72123 C69.37651,93.17438 69.00805,103.5874 69,104.04487 L69,111.55 L159.85,111.55 L159.85,104.06373 C159.84701,103.60281 159.58987,93.10975 143.99196,85.6888 L143.99196,85.6888 Z M83.95,20.36696 C84.21082,19.52033 85.49859,15.85988 89.21953,12.14607 C94.91893,6.45702 103.63501,3.45 114.425,3.45 C125.12161,3.45 133.78824,6.40826 139.4881,12.00485 C143.28333,15.73154 144.63159,19.51734 144.9,20.37133 L144.9,70.68958 C144.877,71.20271 144.45173,79.30354 140.76322,84.2858 C139.5456,83.80441 138.26565,83.34924 136.942,82.92673 C134.88741,81.84458 129.82902,78.97809 127.65,76.92143 L127.65,71.33404 C131.74883,68.9908 135.1618,65.49066 137.56024,61.15194 C140.10496,56.54964 141.45,51.11152 141.45,45.425 L141.45,32.16987 L130.59492,18.60102 L129.23608,20.12868 C117.73884,33.05491 89.53923,31.07691 89.25656,31.05506 L87.4,30.91315 L87.4,45.425 C87.4,51.11152 88.74504,56.54964 91.28976,61.15217 C93.68843,65.49089 97.10117,68.99103 101.2,71.33427 L101.2,76.92166 C99.02098,78.97832 93.96236,81.84481 91.90777,82.92719 C90.6798,83.32003 89.42515,83.77612 88.10495,84.30719 C84.39643,79.31987 83.97254,71.19121 83.95023,70.69027 L83.95023,20.36696 L83.95,20.36696 L83.95,20.36696 Z M114.425,85.1 C109.47103,85.1 105.54079,78.74349 104.65,77.1811 L104.65,72.97831 C107.68186,74.15315 110.95752,74.74977 114.425,74.74977 C117.8934,74.74977 121.16998,74.15292 124.2,72.97854 L124.2,77.18087 C123.30714,78.74694 119.37759,85.1 114.425,85.1 L114.425,85.1 Z M125.12851,68.78104 C121.91725,70.45245 118.31591,71.3 114.425,71.3 C110.53409,71.3 106.93275,70.45245 103.72149,68.78104 L103.7162,68.77805 C99.80942,66.76187 96.55653,63.54785 94.30897,59.48283 C92.046,55.38998 90.85,50.52893 90.85,45.425 L90.85,34.58901 C93.60517,34.68515 99.12402,34.71804 105.46972,33.88452 C116.58976,32.42425 124.96314,29.06303 130.40149,23.88205 L138,33.38013 L138,45.425 C138,50.52893 136.804,55.38998 134.54103,59.48283 C132.2937,63.54785 129.04081,66.7621 125.12851,68.78104 L125.12851,68.78104 Z" id="Shape" fill="#231F20"></path>
                <path d="M135.275001,85.117857 C156.059159,91.610714 156.125002,103.514285 156.125002,103.514285 L156.125002,108.924999 L72.725,108.924999 L72.725,103.514285 C72.725,103.514285 72.9225263,91.6756425 93.5750004,85.117857 C93.5750004,85.117857 95.5283162,84.1006427 97.7669478,82.7804285 C99.8958426,81.5034999 102.288106,79.9235714 103.451316,78.625 C103.451316,78.625 107.972474,88.3642855 114.425001,88.3642855 C120.877527,88.3642855 125.398685,78.625 125.398685,78.625 C126.561896,79.9235714 128.954159,81.5034999 131.083054,82.7804285 L135.275001,85.117857 Z" id="Shape" fill="#E75040"></path>
                <path d="M113.606309,43.334271 C113.852452,52.5646617 111.129678,51.4071232 117.295434,51.4071232" id="Path-3" stroke="#231F20" stroke-width="2" stroke-linecap="round" stroke-linejoin="round"></path>
                <circle id="Oval" fill="#231F20" cx="103.25" cy="37.25" r="2.25"></circle>
                <circle id="Oval" fill="#231F20" cx="126.25" cy="37.25" r="2.25"></circle>
                <path d="M103.370347,57.6785614 C110.382045,65.0613025 117.434091,64.7844685 125.142602,58.1917961" id="Path-2" stroke="#231F20" stroke-width="2.5" stroke-linecap="round" stroke-linejoin="round"></path>
            </g>
        </g>
    </g>
</svg>